<svg width="19" height="19" viewBox="0 0 19 19" fill="none" xmlns="http://www.w3.org/2000/svg">
<path d="M15.5805 15.5444H4.22743C4.08918 15.5444 3.95579 15.4948 3.85278 15.405C3.74977 15.3153 3.68437 15.1917 3.66911 15.0579L2.67043 6.30749C2.6617 6.23105 2.66964 6.15367 2.69372 6.08041C2.7178 6.00716 2.75748 5.93967 2.81017 5.88236C2.86286 5.82504 2.92737 5.7792 2.9995 5.74781C3.07163 5.71642 3.14974 5.7002 3.22875 5.7002H16.5791C16.6581 5.7002 16.7363 5.71642 16.8084 5.74781C16.8805 5.7792 16.945 5.82504 16.9977 5.88236C17.0504 5.93967 17.0901 6.00716 17.1142 6.08041C17.1383 6.15367 17.1462 6.23105 17.1375 6.30749L16.1388 15.0579C16.1235 15.1917 16.0581 15.3153 15.9551 15.405C15.8521 15.4948 15.7187 15.5444 15.5805 15.5444Z" stroke="white" stroke-width="1.5" stroke-linecap="round" stroke-linejoin="round"/>
<path d="M7.09473 7.88769V5.70008C7.09473 4.97485 7.39065 4.27931 7.9174 3.76649C8.44415 3.25368 9.15857 2.96558 9.90351 2.96558C10.6484 2.96558 11.3629 3.25368 11.8896 3.76649C12.4164 4.27931 12.7123 4.97485 12.7123 5.70008V7.88769" stroke="white" stroke-width="1.5" stroke-linecap="round" stroke-linejoin="round"/>
</svg>
