<svg width="19" height="19" viewBox="0 0 19 19" fill="none" xmlns="http://www.w3.org/2000/svg">
<path d="M9.83347 15.5445C9.83347 15.5445 2.81152 11.7162 2.81152 7.06756C2.81167 6.24593 3.1041 5.44971 3.63909 4.81427C4.17409 4.17883 4.91863 3.74339 5.74613 3.58198C6.57363 3.42057 7.43301 3.54317 8.17816 3.92892C8.92331 4.31466 9.50823 4.93976 9.83348 5.69791L9.83347 5.69792C10.1587 4.93976 10.7436 4.31467 11.4888 3.92892C12.2339 3.54317 13.0933 3.42058 13.9208 3.58198C14.7483 3.74339 15.4929 4.17883 16.0279 4.81427C16.5629 5.44971 16.8553 6.24593 16.8554 7.06756C16.8554 11.7162 9.83347 15.5445 9.83347 15.5445Z" stroke="#FF9F0D" stroke-width="1.5" stroke-linecap="round" stroke-linejoin="round"/>
</svg>
